<mxfile host="app.diagrams.net" modified="2023-09-13T15:26:53.417Z" agent="Mozilla/5.0 (Windows NT 10.0; Win64; x64) AppleWebKit/537.36 (KHTML, like Gecko) Chrome/116.0.0.0 Safari/537.36" etag="PG9DNwHqa56j9XLpoYai" version="21.6.1" type="google">
  <diagram name="Page-1" id="HoRLMqWIJuso9RIa6eux">
    <mxGraphModel dx="1248" dy="612" grid="1" gridSize="10" guides="1" tooltips="1" connect="1" arrows="1" fold="1" page="1" pageScale="1" pageWidth="850" pageHeight="1100" math="0" shadow="0">
      <root>
        <mxCell id="0" />
        <mxCell id="1" parent="0" />
        <mxCell id="xXiAcmY0__mInIQEBaRE-1" value="S1" style="ellipse;whiteSpace=wrap;html=1;aspect=fixed;" vertex="1" parent="1">
          <mxGeometry x="160" y="75" width="80" height="80" as="geometry" />
        </mxCell>
        <mxCell id="xXiAcmY0__mInIQEBaRE-2" value="S2" style="ellipse;whiteSpace=wrap;html=1;aspect=fixed;" vertex="1" parent="1">
          <mxGeometry x="300" y="75" width="80" height="80" as="geometry" />
        </mxCell>
        <mxCell id="xXiAcmY0__mInIQEBaRE-3" value="S4" style="ellipse;whiteSpace=wrap;html=1;aspect=fixed;" vertex="1" parent="1">
          <mxGeometry x="465" y="70" width="80" height="80" as="geometry" />
        </mxCell>
        <mxCell id="xXiAcmY0__mInIQEBaRE-5" value="" style="ellipse;whiteSpace=wrap;html=1;aspect=fixed;" vertex="1" parent="1">
          <mxGeometry x="600" y="75" width="80" height="80" as="geometry" />
        </mxCell>
        <mxCell id="xXiAcmY0__mInIQEBaRE-4" value="S6" style="ellipse;whiteSpace=wrap;html=1;aspect=fixed;" vertex="1" parent="1">
          <mxGeometry x="605" y="80" width="70" height="70" as="geometry" />
        </mxCell>
        <mxCell id="xXiAcmY0__mInIQEBaRE-6" value="S3" style="ellipse;whiteSpace=wrap;html=1;aspect=fixed;" vertex="1" parent="1">
          <mxGeometry x="385" y="200" width="80" height="80" as="geometry" />
        </mxCell>
        <mxCell id="xXiAcmY0__mInIQEBaRE-7" value="S5" style="ellipse;whiteSpace=wrap;html=1;aspect=fixed;" vertex="1" parent="1">
          <mxGeometry x="385" y="320" width="80" height="80" as="geometry" />
        </mxCell>
        <mxCell id="xXiAcmY0__mInIQEBaRE-9" value="" style="ellipse;whiteSpace=wrap;html=1;aspect=fixed;" vertex="1" parent="1">
          <mxGeometry x="385" y="440" width="80" height="80" as="geometry" />
        </mxCell>
        <mxCell id="xXiAcmY0__mInIQEBaRE-8" value="S7" style="ellipse;whiteSpace=wrap;html=1;aspect=fixed;" vertex="1" parent="1">
          <mxGeometry x="390" y="445" width="70" height="70" as="geometry" />
        </mxCell>
        <mxCell id="xXiAcmY0__mInIQEBaRE-10" value="" style="endArrow=classic;html=1;rounded=0;exitX=1;exitY=0.5;exitDx=0;exitDy=0;entryX=0;entryY=0.5;entryDx=0;entryDy=0;" edge="1" parent="1" source="xXiAcmY0__mInIQEBaRE-1" target="xXiAcmY0__mInIQEBaRE-2">
          <mxGeometry width="50" height="50" relative="1" as="geometry">
            <mxPoint x="240" y="130" as="sourcePoint" />
            <mxPoint x="290" y="80" as="targetPoint" />
          </mxGeometry>
        </mxCell>
        <mxCell id="xXiAcmY0__mInIQEBaRE-11" value="" style="endArrow=classic;html=1;rounded=0;exitX=1;exitY=0.5;exitDx=0;exitDy=0;entryX=0.013;entryY=0.592;entryDx=0;entryDy=0;entryPerimeter=0;" edge="1" parent="1" source="xXiAcmY0__mInIQEBaRE-2" target="xXiAcmY0__mInIQEBaRE-3">
          <mxGeometry width="50" height="50" relative="1" as="geometry">
            <mxPoint x="400" y="140" as="sourcePoint" />
            <mxPoint x="450" y="90" as="targetPoint" />
          </mxGeometry>
        </mxCell>
        <mxCell id="xXiAcmY0__mInIQEBaRE-12" value="" style="endArrow=classic;html=1;rounded=0;entryX=0;entryY=0.5;entryDx=0;entryDy=0;exitX=0.971;exitY=0.617;exitDx=0;exitDy=0;exitPerimeter=0;" edge="1" parent="1" source="xXiAcmY0__mInIQEBaRE-3" target="xXiAcmY0__mInIQEBaRE-5">
          <mxGeometry width="50" height="50" relative="1" as="geometry">
            <mxPoint x="550" y="110" as="sourcePoint" />
            <mxPoint x="600" y="70" as="targetPoint" />
          </mxGeometry>
        </mxCell>
        <mxCell id="xXiAcmY0__mInIQEBaRE-13" value="" style="endArrow=classic;html=1;rounded=0;exitX=1;exitY=0.5;exitDx=0;exitDy=0;" edge="1" parent="1" source="xXiAcmY0__mInIQEBaRE-5" target="xXiAcmY0__mInIQEBaRE-4">
          <mxGeometry width="50" height="50" relative="1" as="geometry">
            <mxPoint x="700" y="130" as="sourcePoint" />
            <mxPoint x="670" y="160" as="targetPoint" />
            <Array as="points">
              <mxPoint x="710" y="110" />
              <mxPoint x="740" y="130" />
              <mxPoint x="710" y="150" />
            </Array>
          </mxGeometry>
        </mxCell>
        <mxCell id="xXiAcmY0__mInIQEBaRE-14" value="" style="endArrow=classic;html=1;rounded=0;exitX=1;exitY=1;exitDx=0;exitDy=0;" edge="1" parent="1" source="xXiAcmY0__mInIQEBaRE-1" target="xXiAcmY0__mInIQEBaRE-6">
          <mxGeometry width="50" height="50" relative="1" as="geometry">
            <mxPoint x="220" y="270" as="sourcePoint" />
            <mxPoint x="270" y="220" as="targetPoint" />
          </mxGeometry>
        </mxCell>
        <mxCell id="xXiAcmY0__mInIQEBaRE-15" value="" style="endArrow=classic;html=1;rounded=0;exitX=0.625;exitY=0.963;exitDx=0;exitDy=0;exitPerimeter=0;entryX=0.396;entryY=-0.033;entryDx=0;entryDy=0;entryPerimeter=0;" edge="1" parent="1" source="xXiAcmY0__mInIQEBaRE-2" target="xXiAcmY0__mInIQEBaRE-6">
          <mxGeometry width="50" height="50" relative="1" as="geometry">
            <mxPoint x="390" y="200" as="sourcePoint" />
            <mxPoint x="440" y="150" as="targetPoint" />
          </mxGeometry>
        </mxCell>
        <mxCell id="xXiAcmY0__mInIQEBaRE-16" value="" style="endArrow=classic;html=1;rounded=0;exitX=0.329;exitY=0.983;exitDx=0;exitDy=0;exitPerimeter=0;" edge="1" parent="1" source="xXiAcmY0__mInIQEBaRE-3" target="xXiAcmY0__mInIQEBaRE-6">
          <mxGeometry width="50" height="50" relative="1" as="geometry">
            <mxPoint x="500" y="250" as="sourcePoint" />
            <mxPoint x="550" y="200" as="targetPoint" />
          </mxGeometry>
        </mxCell>
        <mxCell id="xXiAcmY0__mInIQEBaRE-17" value="" style="endArrow=classic;html=1;rounded=0;entryX=1;entryY=0.5;entryDx=0;entryDy=0;" edge="1" parent="1" source="xXiAcmY0__mInIQEBaRE-4" target="xXiAcmY0__mInIQEBaRE-6">
          <mxGeometry width="50" height="50" relative="1" as="geometry">
            <mxPoint x="680" y="380" as="sourcePoint" />
            <mxPoint x="730" y="330" as="targetPoint" />
          </mxGeometry>
        </mxCell>
        <mxCell id="xXiAcmY0__mInIQEBaRE-18" value="" style="endArrow=classic;html=1;rounded=0;exitX=0.5;exitY=1;exitDx=0;exitDy=0;entryX=0.5;entryY=0;entryDx=0;entryDy=0;" edge="1" parent="1" source="xXiAcmY0__mInIQEBaRE-6" target="xXiAcmY0__mInIQEBaRE-7">
          <mxGeometry width="50" height="50" relative="1" as="geometry">
            <mxPoint x="500" y="330" as="sourcePoint" />
            <mxPoint x="550" y="280" as="targetPoint" />
          </mxGeometry>
        </mxCell>
        <mxCell id="xXiAcmY0__mInIQEBaRE-19" value="" style="endArrow=classic;html=1;rounded=0;exitX=0.5;exitY=1;exitDx=0;exitDy=0;entryX=0.5;entryY=0;entryDx=0;entryDy=0;" edge="1" parent="1" source="xXiAcmY0__mInIQEBaRE-7" target="xXiAcmY0__mInIQEBaRE-9">
          <mxGeometry width="50" height="50" relative="1" as="geometry">
            <mxPoint x="480" y="450" as="sourcePoint" />
            <mxPoint x="425" y="430" as="targetPoint" />
          </mxGeometry>
        </mxCell>
        <mxCell id="xXiAcmY0__mInIQEBaRE-20" value="&lt;font style=&quot;font-size: 18px;&quot;&gt;A&lt;/font&gt;" style="text;html=1;strokeColor=none;fillColor=none;align=center;verticalAlign=middle;whiteSpace=wrap;rounded=0;" vertex="1" parent="1">
          <mxGeometry x="680" y="80" width="60" height="30" as="geometry" />
        </mxCell>
        <mxCell id="xXiAcmY0__mInIQEBaRE-21" value="&lt;font style=&quot;font-size: 18px;&quot;&gt;A&lt;/font&gt;" style="text;html=1;strokeColor=none;fillColor=none;align=center;verticalAlign=middle;whiteSpace=wrap;rounded=0;" vertex="1" parent="1">
          <mxGeometry x="545" y="75" width="60" height="30" as="geometry" />
        </mxCell>
        <mxCell id="xXiAcmY0__mInIQEBaRE-22" value="&lt;font style=&quot;font-size: 18px;&quot;&gt;A&lt;/font&gt;" style="text;html=1;strokeColor=none;fillColor=none;align=center;verticalAlign=middle;whiteSpace=wrap;rounded=0;" vertex="1" parent="1">
          <mxGeometry x="390" y="80" width="60" height="30" as="geometry" />
        </mxCell>
        <mxCell id="xXiAcmY0__mInIQEBaRE-23" value="&lt;font style=&quot;font-size: 18px;&quot;&gt;A&lt;/font&gt;" style="text;html=1;strokeColor=none;fillColor=none;align=center;verticalAlign=middle;whiteSpace=wrap;rounded=0;" vertex="1" parent="1">
          <mxGeometry x="240" y="80" width="60" height="30" as="geometry" />
        </mxCell>
        <mxCell id="xXiAcmY0__mInIQEBaRE-24" value="&lt;font style=&quot;font-size: 18px;&quot;&gt;A&lt;/font&gt;" style="text;html=1;strokeColor=none;fillColor=none;align=center;verticalAlign=middle;whiteSpace=wrap;rounded=0;" vertex="1" parent="1">
          <mxGeometry x="425" y="280" width="60" height="30" as="geometry" />
        </mxCell>
        <mxCell id="xXiAcmY0__mInIQEBaRE-25" value="&lt;font style=&quot;font-size: 18px;&quot;&gt;A&lt;/font&gt;" style="text;html=1;strokeColor=none;fillColor=none;align=center;verticalAlign=middle;whiteSpace=wrap;rounded=0;" vertex="1" parent="1">
          <mxGeometry x="425" y="400" width="60" height="30" as="geometry" />
        </mxCell>
        <mxCell id="xXiAcmY0__mInIQEBaRE-26" value="&lt;span style=&quot;font-size: 18px;&quot;&gt;B&lt;/span&gt;" style="text;html=1;strokeColor=none;fillColor=none;align=center;verticalAlign=middle;whiteSpace=wrap;rounded=0;" vertex="1" parent="1">
          <mxGeometry x="520" y="190" width="60" height="30" as="geometry" />
        </mxCell>
        <mxCell id="xXiAcmY0__mInIQEBaRE-27" value="&lt;span style=&quot;font-size: 18px;&quot;&gt;B&lt;/span&gt;" style="text;html=1;strokeColor=none;fillColor=none;align=center;verticalAlign=middle;whiteSpace=wrap;rounded=0;" vertex="1" parent="1">
          <mxGeometry x="460" y="160" width="60" height="30" as="geometry" />
        </mxCell>
        <mxCell id="xXiAcmY0__mInIQEBaRE-28" value="&lt;span style=&quot;font-size: 18px;&quot;&gt;B&lt;/span&gt;" style="text;html=1;strokeColor=none;fillColor=none;align=center;verticalAlign=middle;whiteSpace=wrap;rounded=0;" vertex="1" parent="1">
          <mxGeometry x="365" y="150" width="60" height="30" as="geometry" />
        </mxCell>
        <mxCell id="xXiAcmY0__mInIQEBaRE-29" value="&lt;span style=&quot;font-size: 18px;&quot;&gt;B&lt;/span&gt;" style="text;html=1;strokeColor=none;fillColor=none;align=center;verticalAlign=middle;whiteSpace=wrap;rounded=0;" vertex="1" parent="1">
          <mxGeometry x="260" y="180" width="60" height="30" as="geometry" />
        </mxCell>
      </root>
    </mxGraphModel>
  </diagram>
</mxfile>
